<mxfile host="65bd71144e">
    <diagram id="rGCF2pfcni08c6Mfbx-4" name="第 1 页">
        <mxGraphModel dx="598" dy="633" grid="1" gridSize="10" guides="1" tooltips="1" connect="1" arrows="1" fold="1" page="1" pageScale="1" pageWidth="827" pageHeight="1169" math="0" shadow="0">
            <root>
                <mxCell id="0"/>
                <mxCell id="1" parent="0"/>
                <mxCell id="2" value="" style="rounded=0;whiteSpace=wrap;html=1;" vertex="1" parent="1">
                    <mxGeometry x="200" y="290" width="280" height="30" as="geometry"/>
                </mxCell>
                <mxCell id="5" value="" style="rounded=0;whiteSpace=wrap;html=1;fillColor=#3333FF;" vertex="1" parent="1">
                    <mxGeometry x="200" y="290" width="50" height="30" as="geometry"/>
                </mxCell>
                <mxCell id="6" value="target&lt;br&gt;space" style="text;html=1;strokeColor=none;fillColor=none;align=center;verticalAlign=middle;whiteSpace=wrap;rounded=0;" vertex="1" parent="1">
                    <mxGeometry x="195" y="320" width="60" height="30" as="geometry"/>
                </mxCell>
                <mxCell id="7" value="输出空间" style="text;html=1;strokeColor=none;fillColor=none;align=center;verticalAlign=middle;whiteSpace=wrap;rounded=0;" vertex="1" parent="1">
                    <mxGeometry x="310" y="250" width="60" height="30" as="geometry"/>
                </mxCell>
            </root>
        </mxGraphModel>
    </diagram>
</mxfile>